<?xml version="1.0" encoding="utf-8"?>
<!-- Generator: Adobe Illustrator 13.0.0, SVG Export Plug-In . SVG Version: 6.00 Build 14948)  -->
<!DOCTYPE svg PUBLIC "-//W3C//DTD SVG 1.1//EN" "http://www.w3.org/Graphics/SVG/1.1/DTD/svg11.dtd">
<svg version="1.1" id="Layer_1" xmlns="http://www.w3.org/2000/svg" xmlns:xlink="http://www.w3.org/1999/xlink" x="0px" y="0px"
	 width="723px" height="116px" viewBox="107.064 71.627 723 116" enable-background="new 107.064 71.627 723 116"
	 xml:space="preserve">
<path fill="#529DE3" d="M400.714,129.438l-0.055-0.006h-0.062h-42.252c-3.599,0-6.518,2.932-6.518,6.524
	c0,3.552,2.979,6.532,6.518,6.532h42.228c4.094,0,7.441,3.171,7.732,7.185h-41.401c-4.59,0-8.999,1.853-12.781,5.337
	c-3.389,3.401-5.161,7.742-5.161,12.59c0,4.849,1.772,9.201,5.128,12.569c3.815,3.531,8.237,5.373,12.814,5.373h33.539h0.061h0.055
	c17.595-1.487,20.419-13.983,20.82-19.292c0-0.088,0-17.459,0-17.459C420.978,143.432,418.166,130.977,400.714,129.438z
	 M366.904,162.969h41.436v1.514c0,4.285-3.481,7.769-7.767,7.769h-33.669c-1.427,0-2.499-0.401-3.368-1.283
	c-1.026-1.032-1.522-2.126-1.522-3.368C362.014,165.04,364.208,162.969,366.904,162.969z"/>
<path fill="#529DE3" d="M549.852,172.477H507.62c-4.103,0-7.438-3.172-7.741-7.172h41.416c4.591,0,9.004-1.854,12.773-5.351
	c3.383-3.39,5.168-7.742,5.168-12.591c0-4.848-1.785-9.194-5.135-12.563c-3.81-3.523-8.217-5.371-12.808-5.371h-33.539h-0.061
	h-0.056c-17.628,1.486-20.427,13.981-20.834,19.293c0,0.094,0,17.443,0,17.443c0.401,5.385,3.191,17.818,20.665,19.375h0.062h0.061
	h42.26c3.536,0,6.524-2.995,6.524-6.534C556.377,175.471,553.389,172.477,549.852,172.477z M541.295,152.016h-41.443v-1.521
	c0-4.285,3.484-7.775,7.77-7.775h33.675c1.426,0,2.493,0.408,3.361,1.285c1.032,1.023,1.528,2.139,1.528,3.36
	C546.185,149.932,543.991,152.016,541.295,152.016z"/>
<path fill="#529DE3" d="M340.65,161.936c-3.239-3.373-7.232-3.918-11.226-1.506l-0.067,0.026c-0.014,0.021-0.048,0.042-0.048,0.042
	c-8.324,6.695-18.952,10.383-29.935,10.383c-25.179,0-45.687-18.96-45.687-42.252s20.508-42.252,45.687-42.252
	c11.483,0,22.472,3.973,30.932,11.197l0.116,0.094c0.063,0.021,0.122,0.055,0.122,0.055c3.7,1.672,7.191,0.959,10.104-2.082
	c1.896-1.972,3.197-5.488,0.65-8.904l-0.066-0.094c-0.033-0.035-0.089-0.082-0.089-0.082c-11.476-9.629-26.307-14.933-41.771-14.933
	c-34.176,0-61.984,25.567-61.984,57.001c0,31.428,27.809,57.014,61.984,57.014c15.688,0,30.694-5.445,42.212-15.332l0.137-0.115
	c0.039-0.062,0.088-0.157,0.088-0.157C343.631,166.9,342.322,163.716,340.65,161.936z"/>
<path fill="#529DE3" d="M440.826,150.257c0-4.286,3.471-7.769,7.763-7.769h29.776c3.523,0,6.514-2.98,6.514-6.532
	c0-3.593-2.92-6.524-6.514-6.524h-29.805h-0.066l-0.048,0.006c-17.475,1.541-20.271,13.994-20.663,19.271v30.551
	c0,3.546,2.993,6.513,6.529,6.513c3.595,0,6.514-2.928,6.514-6.513V150.257z"/>
<path fill="#529DE3" d="M174.313,103.991c3.401-3.414,5.174-7.747,5.174-12.597c0-4.849-1.764-9.188-5.119-12.563
	c-3.817-3.523-8.229-5.378-12.807-5.378h-33.547h-0.062l-0.061,0.014c-17.607,1.468-20.427,13.976-20.827,19.28
	c0,0.086,0,17.458,0,17.458c0.4,5.358,3.207,17.798,20.664,19.354l0.055,0.008h0.067h42.26c3.592,0,6.525-2.935,6.525-6.527
	c0-3.537-2.995-6.523-6.525-6.523h-42.237c-4.096,0-7.437-3.174-7.729-7.201h41.417C166.138,109.314,170.55,107.475,174.313,103.991
	z M161.561,96.04h-41.45V94.52c0-4.278,3.482-7.775,7.763-7.775h33.688c1.419,0,2.479,0.408,3.354,1.285
	c1.032,1.023,1.526,2.125,1.526,3.365C166.441,93.955,164.25,96.04,161.561,96.04z"/>
<path fill="#529DE3" d="M239.66,83.503c2.051-1.961,1.997-4.989,0.95-7.026c-1.08-2.112-4.006-3.15-6.586-3.15h-45.39
	c-4.081,0-7.395,2.71-7.395,6.035c0,3.443,3.313,6.242,7.395,6.242h30.145l-34.919,33.479c-2.329,2.342-2.227,5.283-1.216,7.327
	c1.025,2.063,4,3.157,6.589,3.157h47.635c4.075,0,7.382-2.709,7.382-6.043c0-3.437-3.307-6.234-7.382-6.234H204.47L239.66,83.503z"
	/>
<path fill="#A7A9AC" d="M580.104,142.04h23.786c3.606,0,6.541-2.886,6.541-6.452c0-3.544-2.935-6.443-6.541-6.443h-23.772v-8.828
	c0-3.592-2.926-6.506-6.532-6.506c-3.524,0-6.52,2.982-6.52,6.506v45.852c0.394,5.385,3.179,17.818,20.656,19.375h0.05h0.061h17.355
	c3.594,0,6.525-2.928,6.525-6.534c0-3.53-2.979-6.518-6.525-6.518h-17.328c-4.285,0-7.756-3.491-7.756-7.775V142.04z"/>
<path fill="#A7A9AC" d="M682.955,159.954c3.396-3.39,5.161-7.742,5.161-12.591c0-4.848-1.767-9.18-5.112-12.563
	c-3.824-3.523-8.23-5.371-12.821-5.371h-33.546h-0.042h-0.054c-17.621,1.486-20.439,13.981-20.834,19.293c0,0.094,0,17.443,0,17.443
	c0.388,5.385,3.205,17.818,20.664,19.375h0.055h0.055h42.272c3.591,0,6.511-2.939,6.511-6.534c0-3.538-2.994-6.532-6.511-6.532
	h-42.239c-4.094,0-7.448-3.17-7.748-7.17h41.417C674.771,165.305,679.194,163.451,682.955,159.954z M670.183,152.016h-41.443v-1.521
	c0-4.285,3.491-7.775,7.774-7.775h33.669c1.434,0,2.492,0.408,3.375,1.285c1.025,1.023,1.528,2.118,1.528,3.36
	C675.086,149.932,672.878,152.016,670.183,152.016z"/>
<path fill="#A7A9AC" d="M764.295,180.176c0,3.539,2.986,6.52,6.521,6.52c3.604,0,6.518-2.926,6.518-6.52v-28.209h33.484
	c3.524,0,6.52,1.501,6.52,5.155v23.054c0,3.594,2.907,6.52,6.514,6.52c3.524,0,6.519-2.98,6.519-6.52l0.014-23.398
	c0-5.34-1.826-17.854-19.42-17.854h-33.629v-8.868c0-3.611-2.913-6.525-6.518-6.525c-3.533,0-6.521,2.988-6.521,6.525
	L764.295,180.176L764.295,180.176z"/>
<path fill="#A7A9AC" d="M755.201,171.457c-3.564-2.675-7.252-1.133-8.345-0.536l-0.068,0.04l-0.074,0.042
	c-4.347,3.117-9.949,4.841-15.755,4.841c-13.079,0-23.734-8.542-23.734-19.054l0,0v-0.013c0-0.016,0-0.029,0-0.029v-0.006
	c0-10.506,10.655-19.042,23.734-19.042c5.806,0,11.408,1.706,15.755,4.836l0.074,0.04l0.068,0.048
	c1.093,0.584,4.779,2.132,8.345-0.538c0.218-0.184,0.4-0.427,0.584-0.65c0.965-1.386,2.606-4.938-1.813-8.74
	c-6.56-4.225-14.594-6.58-23.014-6.58c-20.624,0-37.391,13.738-37.391,30.632c0,0,0,0.015,0,0.028v0.014
	c0,16.888,16.767,30.632,37.391,30.632c8.42,0,16.454-2.349,23.014-6.587c4.42-3.803,2.777-7.346,1.813-8.727
	C755.604,171.879,755.419,171.641,755.201,171.457z"/>
<rect fill="none" width="950.952" height="599.567"/>
</svg>
